# xmcd
#
# Track frame offsets:
#	150
#	26635
#	42232
#	68477
#	80685
#	100872
#	113420
#	131640
#	149130
#
# Disc length: 2269 seconds
#
# Revision: 0
# Processed by: cddbd v1.5.2PL0 Copyright (c) Steve Scherf et al.
# Submitted via: audiograbber 1.83.01
#
DISCID=7808db09
DTITLE=Calvin Russell - Soldier
DYEAR=1992
DGENRE=Southern Rock
TTITLE0=Soldier
TTITLE1=Stranger
TTITLE2=Characters
TTITLE3=I Dreamed I Saw
TTITLE4=Rats and Roaches
TTITLE5=Down In Texas
TTITLE6=Shackles And Chains
TTITLE7=This Could Be The Day
TTITLE8=This Is Your World [Memphis mix]
EXTD=
EXTT0=
EXTT1=
EXTT2=
EXTT3=
EXTT4=
EXTT5=
EXTT6=
EXTT7=
EXTT8=
PLAYORDER=
